<?xml version="1.0" encoding="utf-8"?>
<!-- Generator: Adobe Illustrator 23.0.1, SVG Export Plug-In . SVG Version: 6.00 Build 0)  -->
<svg version="1.1" id="Layer_1" xmlns="http://www.w3.org/2000/svg" xmlns:xlink="http://www.w3.org/1999/xlink" x="0px" y="0px"
	.pages.ox="0 0 1091.6 270" style="enable-background:new 0 0 1091.6 270;" xml:space="preserve">
<style type="text/css">
	.st0{fill:#1F2533;}
	.st1{fill:#00B9A7;}
</style>
<g>
	<g>
		<path class="st0" d="M1064.9,150.3c-14.9,0-26.8,11.6-26.8,26.1c0,14.8,11.9,26.4,26.8,26.4c15.1,0,26.7-11.6,26.7-26.4
			C1091.6,161.9,1080,150.3,1064.9,150.3z M1065,197.1c-11.8,0-20.3-9.2-20.3-20.8c0-11.4,8.6-20.8,20.2-20.8c11.6,0,20,9.4,20,21
			C1084.9,187.9,1076.5,197.1,1065,197.1z"/>
		<path class="st0" d="M1070.9,177.1v-0.3c3.2-1,5.4-3.2,5.4-6c0-2.5-1.1-4.6-2.5-5.7c-1.9-1.1-4.1-1.9-9.1-1.9
			c-4.3,0-7.6,0.3-10,0.8V190h6v-10.5h2.9c3.3,0,4.9,1.3,5.4,4.1c0.8,3,1.3,5.4,2.1,6.4h6.5c-0.6-1-1.1-2.5-1.9-6.5
			C1074.9,180,1073.4,178.1,1070.9,177.1z M1063.7,175.2h-2.9v-7.5c0.6-0.2,1.7-0.3,3.3-0.3c3.8,0,5.6,1.6,5.6,4
			C1069.8,174.1,1067.1,175.2,1063.7,175.2z"/>
		<path class="st0" d="M385.3,150.9h-67.2l88.4-93.2c0.6-0.7,1-1.5,1.2-2.4l6.9-38.7c0.2-1.4-0.1-2.8-1-3.8
			c-0.9-1.1-2.2-1.7-3.6-1.7H279.3c-2.3,0-4.2,1.6-4.6,3.8l-6.9,38.7c-0.2,1.4,0.1,2.8,1,3.8c0.9,1.1,2.2,1.7,3.6,1.7H340
			l-87.7,92.4c-1.1,0.7-2,1.8-2.2,3.2l-6.9,38.7c-0.2,1.4,0.1,2.8,1,3.8c0.9,1.1,2.2,1.7,3.6,1.7h130.6c2.3,0,4.2-1.6,4.6-3.8
			l6.9-38.7c0.2-1.4-0.1-2.8-1-3.8S386.7,150.9,385.3,150.9z"/>
		<path class="st0" d="M523.3,195.1l6.2-34.7c0.2-1.4-0.1-2.8-1-3.8c-0.9-1.1-2.2-1.7-3.6-1.7h-44.8l56.2-41.4
			c1-0.7,1.6-1.8,1.8-2.9l6.2-34.7c0.2-1.4-0.1-2.8-1-3.8c-0.9-1.1-2.2-1.7-3.6-1.7H428.5c-2.3,0-4.2,1.6-4.6,3.8l-6.2,34.7
			c-0.2,1.4,0.1,2.8,1,3.8c0.9,1.1,2.2,1.7,3.6,1.7h46.6l-58,41.3c-1,0.7-1.7,1.8-1.9,3l-6.2,34.7c-0.2,1.4,0.1,2.8,1,3.8
			c0.9,1.1,2.2,1.7,3.6,1.7h111.3C520.9,198.9,522.9,197.3,523.3,195.1z"/>
		<path class="st0" d="M610.4,70.4h-42.1c-2.3,0-4.2,1.6-4.6,3.9L537.9,220c-0.9,4.7-2.9,5.6-5.8,5.6c-4.1,0-5.8-0.9-6.4-1.4
			c-0.8-0.7-1.9-1.1-3-1.1c-0.4,0-0.9,0.1-1.3,0.2c-1.5,0.4-2.7,1.6-3.1,3.1l-8.7,28c-0.5,1.7-0.1,3.5,1.2,4.7l2.5,2.5
			c2.1,2.1,5.3,4,9.8,5.9c4.4,1.8,9.2,2.7,14.3,2.7c15.9,0,28-4,35.9-11.9c7.7-7.7,12.7-18.1,15.1-30.9L615,75.9
			c0.2-1.4-0.1-2.8-1-3.8C613.1,71,611.8,70.4,610.4,70.4z"/>
		<path class="st0" d="M601.7-0.5c-11.2,0-19.7,2.9-25.3,8.7S568,22.8,568,34.6c0,8.4,3.3,22.5,25.2,22.5c11.1,0,19.7-2.9,25.4-8.6
			s8.6-14.5,8.6-26.1C627.2,7.7,618.1-0.5,601.7-0.5z"/>
		<path class="st0" d="M689.6,156.1c-0.7-0.5-1.6-0.7-2.5-0.7c-0.8,0-1.6,0.2-2.3,0.6c-2.3,1.3-4.9,1.9-7.9,1.9
			c-2.8,0-2.8-0.6-2.8-2c0-0.6,0.1-1.2,0.2-1.9l13.9-78.1c0.2-1.4-0.1-2.8-1-3.8c-0.9-1.1-2.2-1.7-3.6-1.7h-42.1
			c-2.3,0-4.2,1.6-4.6,3.9L622,158.1c-0.7,4.2-1.1,9.1-1.1,14.5c0,6.1,1.8,11.9,5.2,17.3c5.4,8.4,16.3,12.6,33.2,12.6
			c11,0,20.9-3.6,29.5-10.7c1-0.8,1.6-2.1,1.7-3.4l1.2-28C691.8,158.6,691,157,689.6,156.1z"/>
		<path class="st0" d="M675.5-0.5c-11.2,0-19.7,2.9-25.3,8.7s-8.4,14.6-8.4,26.4c0,8.4,3.3,22.5,25.2,22.5c11.3,0,19.9-2.9,25.5-8.6
			s8.4-14.4,8.4-26.1C700.9,7.7,691.9-0.5,675.5-0.5z"/>
		<path class="st0" d="M929.3,156.1c-0.8-0.5-1.6-0.7-2.5-0.7c-0.8,0-1.6,0.2-2.3,0.6c-2.3,1.3-4.9,1.9-7.9,1.9
			c-2.8,0-2.8-0.6-2.8-2c0-0.6,0.1-1.2,0.2-1.9l6.2-36.9c0.9-5.2,1.3-11,1.3-17.4c0-7-1.9-13.5-5.7-19.4
			c-5.9-8.9-17.8-13.2-36.2-13.2c-15.3,0-28.1,5.6-38.2,16.6c-6-11-18.8-16.6-38.2-16.6c-11.5,0-21.7,3.2-30.5,9.7l0.1-0.7
			c0.3-1.4-0.1-2.8-1-3.8c-0.9-1.1-2.2-1.7-3.6-1.7H729c-2.3,0-4.2,1.6-4.6,3.9l-21.1,119.2c-0.2,1.4,0.1,2.8,1,3.8
			c0.9,1.1,2.2,1.7,3.6,1.7H750c2.3,0,4.2-1.6,4.6-3.9l13.6-77.1c4-3.9,8.6-5.8,14-5.8c7.3,0,8.7,2.8,8.7,7.2c0,2.7-0.2,5.4-0.7,8.1
			l-11.6,65.9c-0.2,1.4,0.1,2.8,1,3.8c0.9,1.1,2.2,1.7,3.6,1.7h42.1c2.3,0,4.2-1.6,4.6-3.9l13.2-75.4c4-5,9.3-7.4,16-7.4
			c6.9,0,8.3,2.8,8.3,7.2c0,2.7-0.2,5.4-0.7,8.1l-5.2,30.5c-0.7,4-1.1,7.9-1.1,11.5c0,15,6.7,32.9,38.4,32.9
			c11,0,20.9-3.6,29.5-10.7c1-0.8,1.6-2.1,1.7-3.4l1.2-28C931.6,158.6,930.8,157,929.3,156.1z"/>
		<path class="st0" d="M998.5-0.5c-11.2,0-19.7,2.9-25.3,8.7s-8.4,14.6-8.4,26.4c0,8.4,3.3,22.5,25.2,22.5c11.3,0,19.9-2.9,25.5-8.6
			s8.4-14.4,8.4-26.1C1024,7.7,1015-0.5,998.5-0.5z"/>
		<path class="st0" d="M1012.6,156.1c-0.8-0.5-1.6-0.7-2.5-0.7c-0.8,0-1.6,0.2-2.3,0.6c-2.3,1.3-4.9,1.9-7.9,1.9
			c-2.8,0-2.8-0.6-2.8-2c0-0.6,0.1-1.2,0.2-1.9l13.9-78.1c0.2-1.4-0.1-2.8-1-3.8c-0.9-1.1-2.2-1.7-3.6-1.7h-42.1
			c-2.3,0-4.2,1.6-4.6,3.9L945,158.1c-0.7,4.2-1.1,9.1-1.1,14.5c0,6.1,1.7,11.9,5.2,17.3c5.4,8.4,16.3,12.6,33.2,12.6
			c11,0,20.9-3.6,29.5-10.7c1-0.8,1.6-2.1,1.7-3.4l1.2-28C1014.9,158.6,1014.1,157,1012.6,156.1z"/>
	</g>
	<path class="st1" d="M155.6,10.9h-123C14.6,10.9,0,25.5,0,43.5s14.6,32.6,32.6,32.6h44.2L9.6,143.4c-12.7,12.7-12.7,33.4,0,46.1
		c6.4,6.4,14.7,9.6,23.1,9.6c8.3,0,16.7-3.2,23.1-9.6l67.2-67.3v44.2c0,18,14.6,32.6,32.6,32.6s32.6-14.6,32.6-32.6v-123
		C188.2,25.5,173.6,10.9,155.6,10.9z M40.6,163.6l-14,14c-0.7,0.7-1.7,1.1-2.6,1.1c-1,0-1.9-0.4-2.6-1.1c-1.4-1.4-1.4-3.8,0-5.2
		l14-14c1.4-1.4,3.8-1.4,5.2,0S42,162.2,40.6,163.6z M79.3,124.9l-14,14c-0.7,0.7-1.7,1.1-2.6,1.1c-1,0-1.9-0.4-2.6-1.1
		c-1.4-1.4-1.4-3.8,0-5.2l14-14c1.4-1.4,3.8-1.4,5.2,0C80.7,121.1,80.7,123.5,79.3,124.9z M118,86.2l-14,14
		c-0.7,0.7-1.7,1.1-2.6,1.1c-1,0-1.9-0.4-2.6-1.1c-1.4-1.4-1.4-3.8,0-5.2l14-14c1.4-1.4,3.8-1.4,5.2,0
		C119.4,82.4,119.4,84.8,118,86.2z M156.7,47.5l-14,14c-0.7,0.7-1.7,1.1-2.6,1.1c-1,0-1.9-0.4-2.6-1.1c-1.4-1.4-1.4-3.8,0-5.2l14-14
		c1.4-1.4,3.8-1.4,5.2,0C158.1,43.7,158.1,46.1,156.7,47.5z"/>
</g>
</svg>
